<?xml version="1.0" encoding="UTF-8"?>
<svg width="14px" height="14px" viewBox="0 0 14 14" version="1.1" xmlns="http://www.w3.org/2000/svg" xmlns:xlink="http://www.w3.org/1999/xlink">
    <title>Shape@2x</title>
    <defs>
        <linearGradient x1="-5.07927034e-13%" y1="100%" x2="100%" y2="-6.80011603e-13%" id="linearGradient-1">
            <stop stop-color="#E59061" offset="0%"></stop>
            <stop stop-color="#C03E88" offset="46.6127622%"></stop>
            <stop stop-color="#4F40C9" offset="100%"></stop>
        </linearGradient>
    </defs>
    <g id="Home" stroke="none" stroke-width="1" fill="none" fill-rule="evenodd">
        <g transform="translate(-994.000000, -3346.000000)" fill="url(#linearGradient-1)" fill-rule="nonzero" id="Group-22">
            <g transform="translate(0.000000, 3186.000000)">
                <path d="M1001,161.26175 C1002.869,161.26175 1003.09067,161.26875 1003.82917,161.302583 C1005.72617,161.388917 1006.61225,162.289 1006.69858,164.172 C1006.73242,164.909917 1006.73883,165.131583 1006.73883,167.000583 C1006.73883,168.870167 1006.73183,169.09125 1006.69858,169.829167 C1006.61167,171.710417 1005.72792,172.61225 1003.82917,172.698583 C1003.09067,172.732417 1002.87017,172.739417 1001,172.739417 C999.131,172.739417 998.909333,172.732417 998.171417,172.698583 C996.26975,172.611667 995.388333,171.7075 995.302,169.828583 C995.268167,169.090667 995.261167,168.869583 995.261167,167 C995.261167,165.131 995.26875,164.909917 995.302,164.171417 C995.388917,162.289 996.272667,161.388333 998.171417,161.302 C998.909917,161.26875 999.131,161.26175 1001,161.26175 L1001,161.26175 Z M1001,160 C999.098917,160 998.860917,160.008167 998.11425,160.042 C995.572083,160.158667 994.15925,161.569167 994.042583,164.113667 C994.008167,164.860917 994,165.098917 994,167 C994,168.901083 994.008167,169.139667 994.042,169.886333 C994.158667,172.4285 995.569167,173.841333 998.113667,173.958 C998.860917,173.991833 999.098917,174 1001,174 C1002.90108,174 1003.13967,173.991833 1003.88633,173.958 C1006.42617,173.841333 1007.8425,172.430833 1007.95742,169.886333 C1007.99183,169.139667 1008,168.901083 1008,167 C1008,165.098917 1007.99183,164.860917 1007.958,164.11425 C1007.84367,161.574417 1006.43142,160.15925 1003.88692,160.042583 C1003.13967,160.008167 1002.90108,160 1001,160 L1001,160 Z M1001,163.4055 C999.014917,163.4055 997.4055,165.014917 997.4055,167 C997.4055,168.985083 999.014917,170.595083 1001,170.595083 C1002.98508,170.595083 1004.5945,168.985667 1004.5945,167 C1004.5945,165.014917 1002.98508,163.4055 1001,163.4055 Z M1001,169.333333 C999.711417,169.333333 998.666667,168.289167 998.666667,167 C998.666667,165.711417 999.711417,164.666667 1001,164.666667 C1002.28858,164.666667 1003.33333,165.711417 1003.33333,167 C1003.33333,168.289167 1002.28858,169.333333 1001,169.333333 Z M1004.73683,162.42375 C1004.2725,162.42375 1003.89625,162.8 1003.89625,163.26375 C1003.89625,163.7275 1004.2725,164.10375 1004.73683,164.10375 C1005.20058,164.10375 1005.57625,163.7275 1005.57625,163.26375 C1005.57625,162.8 1005.20058,162.42375 1004.73683,162.42375 Z" id="Shape"></path>
            </g>
        </g>
    </g>
</svg>