<?xml version="1.0" encoding="UTF-8"?>
<svg width="15px" height="14px" viewBox="0 0 15 14" version="1.1" xmlns="http://www.w3.org/2000/svg" xmlns:xlink="http://www.w3.org/1999/xlink">
    <title>Shape 2@2x</title>
    <g id="Home" stroke="none" stroke-width="1" fill="none" fill-rule="evenodd">
        <g transform="translate(-993.000000, -3378.000000)" fill="#3375B0" fill-rule="nonzero" id="Group-22">
            <g transform="translate(0.000000, 3186.000000)">
                <path d="M996.031304,193.521739 C996.031304,194.362348 995.355652,195.043478 994.521739,195.043478 C993.687826,195.043478 993.012174,194.362348 993.012174,193.521739 C993.012174,192.681739 993.687826,192 994.521739,192 C995.355652,192 996.031304,192.681739 996.031304,193.521739 Z M996.043478,196.26087 L993,196.26087 L993,206 L996.043478,206 L996.043478,196.26087 Z M1000.90209,196.26087 L997.878087,196.26087 L997.878087,206 L1000.9027,206 L1000.9027,200.887565 C1000.9027,198.044957 1004.57252,197.812435 1004.57252,200.887565 L1004.57252,206 L1007.6087,206 L1007.6087,199.833304 C1007.6087,195.036783 1002.17791,195.211478 1000.90209,197.572609 L1000.90209,196.26087 Z" id="Shape"></path>
            </g>
        </g>
    </g>
</svg>