<?xml version="1.0" encoding="UTF-8"?>
<svg width="18px" height="14px" viewBox="0 0 18 14" version="1.1" xmlns="http://www.w3.org/2000/svg" xmlns:xlink="http://www.w3.org/1999/xlink">
    <title>Path 2@2x</title>
    <g id="Home" stroke="none" stroke-width="1" fill="none" fill-rule="evenodd">
        <g transform="translate(-992.000000, -3314.000000)" fill="#4D9FEB" fill-rule="nonzero" id="Group-22">
            <g transform="translate(0.000000, 3186.000000)">
                <path d="M1009.22724,129.657404 C1008.59342,129.938782 1007.91222,130.128281 1007.19729,130.2137 C1007.9273,129.776559 1008.4879,129.08388 1008.75133,128.258409 C1008.0687,128.663249 1007.31214,128.957547 1006.50677,129.116181 C1005.8629,128.429245 1004.9434,128 1003.92699,128 C1001.6451,128 999.968314,130.128999 1000.4837,132.33911 C997.54717,132.191961 994.942986,130.78507 993.199446,128.646739 C992.273482,130.235234 992.719237,132.313269 994.292658,133.365566 C993.71411,133.346903 993.168581,133.188269 992.692678,132.9234 C992.653917,134.560705 993.827523,136.092494 995.527276,136.43345 C995.02984,136.568396 994.485029,136.599979 993.930886,136.493745 C994.38023,137.897765 995.685193,138.919196 997.232773,138.947908 C995.746924,140.1129 993.874897,140.633306 992,140.412223 C993.564089,141.414992 995.422477,142 997.417966,142 C1003.98011,142 1007.68755,136.457855 1007.4636,131.48708 C1008.15412,130.988208 1008.75349,130.365874 1009.22724,129.657404 Z" id="Path"></path>
            </g>
        </g>
    </g>
</svg>