<?xml version="1.0" encoding="UTF-8"?>
<svg width="110px" height="110px" viewBox="0 0 110 110" version="1.1" xmlns="http://www.w3.org/2000/svg" xmlns:xlink="http://www.w3.org/1999/xlink">
    <title>Group 18@2x</title>
    <g id="Profile" stroke="none" stroke-width="1" fill="none" fill-rule="evenodd">
        <g id="Group-18" transform="translate(-0.000000, 0.000000)">
            <polygon id="Clip-2-Copy" fill="#1A2430" points="0 0 109.999802 0 109.999802 110 0 110"></polygon>
            <path d="M10.3580023,110 C10.6390023,103.346 13.7950023,98.444 19.4730023,95.105 C23.3850023,92.805 27.7330023,91.636 32.0290023,90.327 C35.2580023,89.343 38.5640023,88.513 41.3030023,86.368 C42.8680023,85.142 43.6830023,83.654 43.7530023,81.548 C43.8690023,78.053 43.6870023,74.937 40.6980023,72.355 C38.7070023,70.634 37.5910023,68.057 36.9650023,65.411 C36.8040023,64.73 36.3520023,64.464 35.7940023,64.148 C32.7860023,62.449 31.6790023,57.233 33.7900023,54.479 C34.3400023,53.761 34.2170023,53.253 33.9770023,52.527 C31.4010023,44.76 32.2120023,37.399 37.0240023,30.711 C40.2590023,26.214 45.0160023,24.171 50.3540023,23.364 C54.2960023,22.768 58.2060023,22.678 61.8780023,24.611 C62.6110023,24.998 63.5200023,25.329 63.9510023,25.958 C65.4450023,28.133 67.7400023,28.63 70.0080023,29.467 C73.5730023,30.785 75.3440023,33.889 76.3300023,37.354 C77.7870023,42.473 78.0290023,47.627 75.9780023,52.685 C75.6940023,53.383 75.7360023,53.842 76.2150023,54.475 C78.3110023,57.245 77.2250023,62.465 74.2010023,64.139 C73.4900023,64.532 73.1830023,64.985 72.9650023,65.734 C71.9140023,69.343 69.8020023,72.312 67.1120023,74.865 C66.5160023,75.432 66.2720023,75.947 66.2920023,76.716 C66.3240023,77.992 66.4300023,79.286 66.2750023,80.544 C65.8380023,84.114 67.7790023,86.17 70.6430023,87.638 C74.0200023,89.371 77.7110023,90.234 81.3130023,91.335 C85.6290023,92.656 89.8830023,94.146 93.3920023,97.095 C97.3700023,100.438 99.5020023,104.756 99.6420023,110 L10.3580023,110 Z" id="Fill-4-Copy" fill="#000000"></path>
        </g>
    </g>
</svg>