<svg width="17px" height="17px" viewBox="0 0 17 17" version="1.1" xmlns="http://www.w3.org/2000/svg">
    <g id="Web" stroke="none" strokeWidth="1" fill="none" fillRule="evenodd">
      <g id="Nav-bar-&amp;-Footer-Copy" transform="translate(-585.000000, -22.000000)" fill="#9B9B9B">
        <g id="Group-8">
          <g id="Group-4" transform="translate(399.000000, 18.000000)">
            <g id="Group" transform="translate(184.000000, 1.000000)">
              <path d="M5.16044336,19.7998047 C3.30497461,19.7998047 2.35868555,18.862793 2.35868555,17.0258789 L2.35868555,6.31982422 C2.35868555,4.48291016 3.30497461,3.55517578 5.16044336,3.55517578 L15.8015566,3.55517578 C17.6570254,3.55517578 18.6033145,4.4921875 18.6033145,6.31982422 L18.6033145,17.0258789 C18.6033145,18.862793 17.6570254,19.7998047 15.8015566,19.7998047 L5.16044336,19.7998047 Z M8.1384707,16.1352539 C8.50956445,16.1352539 8.75077539,15.949707 8.8157168,15.5786133 L9.22391992,13.6767578 L10.8660098,13.6767578 L10.5041934,15.4208984 C10.4299746,15.8105469 10.6990176,16.1352539 11.088666,16.1352539 C11.4875918,16.1352539 11.7288027,15.949707 11.8030215,15.5786133 L12.2019473,13.6674805 L13.1204043,13.6674805 C13.491498,13.6674805 13.7698184,13.3891602 13.7698184,13.0180664 C13.7698184,12.6933594 13.5378848,12.4614258 13.2224551,12.4614258 L12.4617129,12.4614258 L12.842084,10.6616211 L13.760541,10.6616211 C14.1409121,10.6616211 14.4099551,10.3833008 14.4099551,10.012207 C14.4099551,9.67822266 14.1780215,9.44628906 13.8625918,9.44628906 L13.0925723,9.44628906 L13.4265566,7.78564453 C13.5100527,7.40527344 13.2224551,7.07128906 12.8235293,7.07128906 C12.4524355,7.07128906 12.2112246,7.25683594 12.1370059,7.62792969 L11.7473574,9.44628906 L10.1052676,9.44628906 L10.4485293,7.78564453 C10.522748,7.41455078 10.2537051,7.07128906 9.8547793,7.07128906 C9.46513086,7.07128906 9.23319727,7.25683594 9.15897852,7.62792969 L8.77860742,9.44628906 L7.85087305,9.44628906 C7.4797793,9.44628906 7.20145898,9.72460938 7.20145898,10.0864258 C7.20145898,10.4204102 7.44266992,10.6616211 7.75809961,10.6616211 L8.52811914,10.6616211 L8.14774805,12.4614258 L7.21073633,12.4614258 C6.83964258,12.4614258 6.57059961,12.7304688 6.57059961,13.1108398 C6.57059961,13.4262695 6.79325586,13.6674805 7.10868555,13.6674805 L7.89725977,13.6674805 L7.53544336,15.4208984 C7.45194727,15.8012695 7.73954492,16.1352539 8.1384707,16.1352539 Z M9.39091211,12.5820312 L9.79911523,10.5688477 L11.6081973,10.5688477 L11.1907168,12.5820312 L9.39091211,12.5820312 Z" id="􀃫"></path>
            </g>
          </g>
        </g>
      </g>
    </g>
  </svg>