  <svg width="20px" height="19px" viewBox="0 0 20 19" version="1.1" xmlns="http://www.w3.org/2000/svg">
    <g id="Web" stroke="none" strokeWidth="1" fill="none" fillRule="evenodd">
      <g id="Nav-bar-&amp;-Footer-Copy" transform="translate(-751.000000, -22.000000)" fill="#9B9B9B">
        <g id="Group-8">
          <g id="Group-4" transform="translate(399.000000, 18.000000)">
            <g id="Group-2" transform="translate(350.000000, 1.000000)">
              <path d="M7.52323633,21.4140625 C7.01298242,21.4140625 6.71610742,21.0522461 6.71610742,20.4956055 L6.71610742,17.9443359 L6.32645898,17.9443359 C3.73808008,17.9443359 2.29081445,16.4785156 2.29081445,13.8901367 L2.29081445,7.13623047 C2.29081445,4.54785156 3.72880273,3.08203125 6.34501367,3.08203125 L17.6169863,3.08203125 C20.2331973,3.08203125 21.6711855,4.55712891 21.6711855,7.13623047 L21.6711855,13.8901367 C21.6711855,16.4785156 20.2331973,17.9536133 17.6169863,17.9443359 L11.7444277,17.9443359 L8.55302148,20.8481445 C8.12626367,21.237793 7.87577539,21.4140625 7.52323633,21.4140625 Z M7.06864648,8.06396484 L16.8933535,8.06396484 C17.2087832,8.06396484 17.4685488,7.80419922 17.4685488,7.47949219 C17.4685488,7.17333984 17.2087832,6.91357422 16.8933535,6.91357422 L7.06864648,6.91357422 C6.7532168,6.91357422 6.49345117,7.17333984 6.49345117,7.47949219 C6.49345117,7.80419922 6.7532168,8.06396484 7.06864648,8.06396484 Z M7.06864648,11.2089844 L16.8933535,11.2089844 C17.2087832,11.2089844 17.4685488,10.9492188 17.4685488,10.6245117 C17.4685488,10.3183594 17.2087832,10.0493164 16.8933535,10.0493164 L7.06864648,10.0493164 C6.7532168,10.0493164 6.49345117,10.3183594 6.49345117,10.6245117 C6.49345117,10.9492188 6.7532168,11.2089844 7.06864648,11.2089844 Z M7.06864648,14.3540039 L13.4607363,14.3540039 C13.776166,14.3540039 14.0359316,14.0942383 14.0359316,13.7695312 C14.0359316,13.4448242 13.776166,13.1943359 13.4607363,13.1943359 L7.06864648,13.1943359 C6.7532168,13.1943359 6.49345117,13.4448242 6.49345117,13.7695312 C6.49345117,14.0942383 6.7532168,14.3540039 7.06864648,14.3540039 Z" id="􀌳"></path>
            </g>
          </g>
        </g>
      </g>
    </g>
  </svg>