 <svg width="20px" height="19px" viewBox="0 0 200 194" version="1.1" xmlns="http://www.w3.org/2000/svg">
    <title>Shape@2x</title>
    <g id="Page-1" stroke="none" strokeWidth="1" fill="none" fillRule="evenodd">
      <path fill='#9b9b9b' d="M0,185.962914 C0,188.182767 0.786561385,190.077245 2.35968416,191.646347 C3.93280693,193.215449 5.80317673,194 7.97079357,194 L192.029206,194 C194.202921,194 196.074815,193.215449 197.644889,191.646347 C199.214963,190.077245 200,188.182767 200,185.962914 C200,183.800837 199.214963,181.935248 197.644889,180.366146 C196.074815,178.797044 194.202921,178.012493 192.029206,178.012493 L7.97079357,178.012493 C5.80317673,178.012493 3.93280693,178.797044 2.35968416,180.366146 C0.786561385,181.935248 0,183.800837 0,185.962914 Z M15.9842688,80.8771729 C15.9842688,82.9095046 16.5548815,84.4945713 17.6961068,85.632373 C18.8373322,86.7701747 20.4262065,87.3390755 22.4627298,87.3390755 L45.7455565,87.3390755 C47.7820798,87.3390755 49.3562188,86.7701747 50.4679735,85.632373 C51.5797283,84.4945713 52.1356056,82.9095046 52.1356056,80.8771729 L52.1356056,78.6208286 C52.1356056,76.6543829 51.5797283,75.1167035 50.4679735,74.0077903 C49.3562188,72.8988772 47.7820798,72.3444206 45.7455565,72.3444206 L22.4627298,72.3444206 C20.4262065,72.3444206 18.8373322,72.8988772 17.6961068,74.0077903 C16.5548815,75.1167035 15.9842688,76.6543829 15.9842688,78.6208286 L15.9842688,80.8771729 Z M26.685162,158.299889 L41.7182403,158.299889 L41.7182403,81.3774002 L26.685162,81.3774002 L26.685162,158.299889 Z M15.9842688,163.458768 C15.9842688,165.431295 16.5548815,166.986713 17.6961068,168.125022 C18.8373322,169.26333 20.4262065,169.832484 22.4627298,169.832484 L45.7455565,169.832484 C47.7820798,169.832484 49.3562188,169.26333 50.4679735,168.125022 C51.5797283,166.986713 52.1356056,165.431295 52.1356056,163.458768 L52.1356056,161.202423 C52.1356056,159.234964 51.5797283,157.696778 50.4679735,156.587865 C49.3562188,155.478951 47.7820798,154.924495 45.7455565,154.924495 L22.4627298,154.924495 C20.4262065,154.924495 18.8373322,155.478951 17.6961068,156.587865 C16.5548815,157.696778 15.9842688,159.234964 15.9842688,161.202423 L15.9842688,163.458768 Z M60.2054815,80.8771729 C60.2054815,82.9095046 60.7760942,84.4945713 61.9173196,85.632373 C63.058545,86.7701747 64.6443706,87.3390755 66.6747965,87.3390755 L89.8783574,87.3390755 C91.9148806,87.3390755 93.503755,86.7701747 94.6449803,85.632373 C95.7862057,84.4945713 96.3568184,82.9095046 96.3568184,80.8771729 L96.3568184,78.6208286 C96.3568184,76.6543829 95.7862057,75.1167035 94.6449803,74.0077903 C93.503755,72.8988772 91.9148806,72.3444206 89.8783574,72.3444206 L66.6747965,72.3444206 C64.6443706,72.3444206 63.058545,72.8988772 61.9173196,74.0077903 C60.7760942,75.1167035 60.2054815,76.6543829 60.2054815,78.6208286 L60.2054815,80.8771729 Z M70.8179629,158.299889 L85.8418951,158.299889 L85.8418951,81.3774002 L70.8179629,81.3774002 L70.8179629,158.299889 Z M60.2054815,163.458768 C60.2054815,165.431295 60.7760942,166.986713 61.9173196,168.125022 C63.058545,169.26333 64.6443706,169.832484 66.6747965,169.832484 L89.8783574,169.832484 C91.9148806,169.832484 93.503755,169.26333 94.6449803,168.125022 C95.7862057,166.986713 96.3568184,165.431295 96.3568184,163.458768 L96.3568184,161.202423 C96.3568184,159.234964 95.7862057,157.696778 94.6449803,156.587865 C93.503755,155.478951 91.9148806,154.924495 89.8783574,154.924495 L66.6747965,154.924495 C64.6443706,154.924495 63.058545,155.478951 61.9173196,156.587865 C60.7760942,157.696778 60.2054815,159.234964 60.2054815,161.202423 L60.2054815,163.458768 Z M104.524252,80.8771729 C104.524252,82.9095046 105.094865,84.4945713 106.23609,85.632373 C107.377316,86.7701747 108.933671,87.3390755 110.905155,87.3390755 L134.197128,87.3390755 C136.227554,87.3390755 137.81338,86.7701747 138.954605,85.632373 C140.09583,84.4945713 140.666443,82.9095046 140.666443,80.8771729 L140.666443,78.6208286 C140.666443,76.6543829 140.09583,75.1167035 138.954605,74.0077903 C137.81338,72.8988772 136.227554,72.3444206 134.197128,72.3444206 L110.905155,72.3444206 C108.933671,72.3444206 107.377316,72.8988772 106.23609,74.0077903 C105.094865,75.1167035 104.524252,76.6543829 104.524252,78.6208286 L104.524252,80.8771729 Z M115.127588,158.299889 L130.160666,158.299889 L130.160666,81.3774002 L115.127588,81.3774002 L115.127588,158.299889 Z M104.524252,163.458768 C104.524252,165.431295 105.094865,166.986713 106.23609,168.125022 C107.377316,169.26333 108.933671,169.832484 110.905155,169.832484 L134.197128,169.832484 C136.227554,169.832484 137.81338,169.26333 138.954605,168.125022 C140.09583,166.986713 140.666443,165.431295 140.666443,163.458768 L140.666443,161.202423 C140.666443,159.234964 140.09583,157.696778 138.954605,156.587865 C137.81338,155.478951 136.227554,154.924495 134.197128,154.924495 L110.905155,154.924495 C108.933671,154.924495 107.377316,155.478951 106.23609,156.587865 C105.094865,157.696778 104.524252,159.234964 104.524252,161.202423 L104.524252,163.458768 Z M148.647907,80.8771729 C148.647907,82.9095046 149.21852,84.4945713 150.359745,85.632373 C151.50097,86.7701747 153.089845,87.3390755 155.126368,87.3390755 L178.409195,87.3390755 C180.387793,87.3390755 181.947451,86.7701747 183.088168,85.632373 C184.228885,84.4945713 184.799244,82.9095046 184.799244,80.8771729 L184.799244,78.6208286 C184.799244,76.6543829 184.228885,75.1167035 183.088168,74.0077903 C181.947451,72.8988772 180.387793,72.3444206 178.409195,72.3444206 L155.126368,72.3444206 C153.089845,72.3444206 151.50097,72.8988772 150.359745,74.0077903 C149.21852,75.1167035 148.647907,76.6543829 148.647907,78.6208286 L148.647907,80.8771729 Z M159.260388,158.299889 L174.284321,158.299889 L174.284321,81.3774002 L159.260388,81.3774002 L159.260388,158.299889 Z M148.647907,163.458768 C148.647907,165.431295 149.21852,166.986713 150.359745,168.125022 C151.50097,169.26333 153.089845,169.832484 155.126368,169.832484 L178.409195,169.832484 C180.387793,169.832484 181.947451,169.26333 183.088168,168.125022 C184.228885,166.986713 184.799244,165.431295 184.799244,163.458768 L184.799244,161.202423 C184.799244,159.234964 184.228885,157.696778 183.088168,156.587865 C181.947451,155.478951 180.387793,154.924495 178.409195,154.924495 L155.126368,154.924495 C153.089845,154.924495 151.50097,155.478951 150.359745,156.587865 C149.21852,157.696778 148.647907,159.234964 148.647907,161.202423 L148.647907,163.458768 Z M12.9386299,64.1644121 L186.972958,64.1644121 C189.659868,64.1644121 191.754316,63.3644032 193.256303,61.7643855 C194.75829,60.1643677 195.509283,58.3360294 195.509283,56.2793705 C195.509283,54.7356093 195.104062,53.3246339 194.293619,52.0464442 C193.483176,50.7682545 192.171479,49.6238642 190.358526,48.6132734 L111.540807,3.28568741 C107.752304,1.09522914 103.889109,-2.84217094e-14 99.951221,-2.84217094e-14 C96.0133329,-2.84217094e-14 92.1501377,1.09522914 88.3616353,3.28568741 L9.55306241,48.6132734 C7.74722315,49.6238642 6.43730374,50.7682545 5.62330417,52.0464442 C4.80930459,53.3246339 4.40230481,54.7356093 4.40230481,56.2793705 C4.40230481,58.3360294 5.15329817,60.1643677 6.6552849,61.7643855 C8.15727163,63.3644032 10.25172,64.1644121 12.9386299,64.1644121 Z" id="Shape" fillRule="nonzero"></path>
    </g>
  </svg>