<svg width="15px" height="20px" viewBox="0 0 15 20" version="1.1" xmlns="http://www.w3.org/2000/svg">
    <g id="Web" stroke="none" strokeWidth="1" fill="none" fillRule="evenodd">
      <g id="Nav-bar-&amp;-Footer-Copy" transform="translate(-399.000000, -21.000000)" fill="#9B9B9B">
        <g id="Group-8">
          <g id="Group-4" transform="translate(399.000000, 18.000000)">
            <path d="M1.5110293,22.1635742 C0.926556641,22.1635742 0.462689453,21.8017578 0.462689453,20.9575195 L0.462689453,5.99316406 C0.462689453,4.13769531 1.39970117,3.19140625 3.22733789,3.19140625 L11.7346621,3.19140625 C13.5715762,3.19140625 14.4993105,4.13769531 14.4993105,5.99316406 L14.4993105,20.9575195 C14.4993105,21.8017578 14.0354434,22.1635742 13.4509707,22.1635742 C12.9871035,22.1635742 12.6995059,21.9038086 12.3376895,21.5605469 L7.90311914,17.3022461 C7.71757227,17.1259766 7.5969668,17.0703125 7.48563867,17.0703125 C7.3650332,17.0703125 7.25370508,17.1166992 7.05888086,17.3022461 L3.12528711,21.0595703 C2.23466211,21.8945312 1.97489648,22.1635742 1.5110293,22.1635742 Z" id="􀉟"></path>
          </g>
        </g>
      </g>
    </g>
  </svg>