<?xml version="1.0" encoding="UTF-8"?>
<svg width="180px" height="30px" viewBox="0 0 180 30" version="1.1" xmlns="http://www.w3.org/2000/svg" xmlns:xlink="http://www.w3.org/1999/xlink">
    <title>Group 5@2x</title>
    <defs>
        <linearGradient x1="24.2372172%" y1="0%" x2="80.4936192%" y2="100%" id="linearGradient-1">
            <stop stop-color="#00DDFF" offset="0%"></stop>
            <stop stop-color="#00B5FF" offset="100%"></stop>
        </linearGradient>
        <linearGradient x1="22.2637926%" y1="2.06163194%" x2="81.7870146%" y2="97.9383681%" id="linearGradient-2">
            <stop stop-color="#00DDFF" offset="0%"></stop>
            <stop stop-color="#00B5FF" offset="100%"></stop>
        </linearGradient>
        <linearGradient x1="20.045376%" y1="4.25049008%" x2="64.8133563%" y2="94.6810488%" id="linearGradient-3">
            <stop stop-color="#00DDFF" offset="0%"></stop>
            <stop stop-color="#00B5FF" offset="100%"></stop>
        </linearGradient>
    </defs>
    <g id="Web" stroke="none" stroke-width="1" fill="none" fill-rule="evenodd">
        <g id="Navigation-Selected-Dark" transform="translate(-120.000000, -10.000000)">
            <g id="Group-7" transform="translate(0.000000, -1.000000)">
                <g id="Group-5" transform="translate(120.000000, 11.000000)">
                    <g id="Group-9">
                        <path d="M26.8085106,28.8506836 C25.1510656,29.7623065 23.4426472,30.1016378 21.6261421,29.9741499 C18.5527961,29.7585998 16.269769,28.3104044 14.7355867,25.7522217 C9.86589336,17.6323083 5.01126029,9.50397059 0.15152989,1.37844096 C0.103684443,1.29835383 0.0669604561,1.21197656 0,1.07864778 C1.10739619,0.445701147 2.30272143,0.121870598 3.55655018,0.0331345128 C7.50072957,-0.246215669 10.4540564,1.23736182 12.441554,4.61405067 C17.099592,12.5278493 21.8152069,20.4097478 26.5067252,28.3050129 C26.6018368,28.4649625 26.6871014,28.6305283 26.8085106,28.8506836" id="Fill-1" fill="url(#linearGradient-1)"></path>
                        <path d="M36.3829787,19.5067842 C35.286926,20.1600682 34.1352093,20.498121 32.9193911,20.5891828 C29.2538898,20.8637172 26.3953402,19.5664803 24.5243279,16.4753262 C21.5163645,11.5062759 18.5305495,6.52485905 15.5371173,1.54771428 C15.4609456,1.42101474 15.405516,1.28273573 15.3191489,1.10645811 C16.4264517,0.459807027 17.6074652,0.112423188 18.8640645,0.0284439876 C22.6152297,-0.222256971 25.4286622,1.18133113 27.3089323,4.35590228 C30.2101381,9.25412684 33.1722813,14.1189621 36.1073542,18.998637 C36.1940728,19.142762 36.268018,19.2938571 36.3829787,19.5067842" id="Fill-4" fill="url(#linearGradient-2)"></path>
                        <path d="M38.147968,13.125 C37.8069734,12.5036833 37.5019373,11.9606558 37.208702,11.4112985 C36.0156103,9.17655719 34.8325381,6.93648551 33.6277572,4.70796289 C33.4521945,4.38314583 33.4802489,4.13972738 33.6701728,3.84400504 C35.2621491,1.36562315 37.5262066,0.0958938426 40.4762612,0.00527821271 C41.9513442,-0.0400296022 43.3506135,0.202389417 44.66828,0.886115439 C44.9915737,1.05390982 45.1039027,1.19771771 44.8912681,1.5626233 C42.7032469,5.31750847 40.5319247,9.08205486 38.3549249,12.8433808 C38.3190776,12.9052349 38.2702051,12.9597597 38.147968,13.125" id="Fill-6" fill="url(#linearGradient-3)"></path>
                    </g>
                    <path d="M58.6430287,22.7766923 L62.1503678,12.3928821 L65.6691313,22.7766923 L68.4681478,22.7766923 L73.3121601,7 L70.296077,7 L66.8572853,18.6120028 L63.2813989,7.91556176 L61.0307612,7.91556176 L57.4548748,18.6120028 L54.0160831,7 L51,7 L55.8440122,22.7766923 L58.6430287,22.7766923 Z M78.157269,9.51221214 L78.157269,7 L75.2325824,7 L75.2325824,9.51221214 L78.157269,9.51221214 Z M78.0887217,22.7766923 L78.0887217,11.6224703 L75.3011298,11.6224703 L75.3011298,22.7766923 L78.0887217,22.7766923 Z M83.7792479,23 C84.3885576,23 85.0816474,22.9255641 85.8585173,22.7766923 L85.8585173,22.7766923 L85.8585173,20.4877879 C85.5614788,20.5324494 85.3063304,20.5547802 85.093072,20.5547802 C84.4837623,20.5547802 84.1791074,20.3054199 84.1791074,19.8066992 L84.1791074,19.8066992 L84.1791074,7 L81.3915155,7 L81.3915155,20.5547802 C81.3915155,21.4628983 81.6047739,22.0974645 82.0312907,22.4584787 C82.4578075,22.8194929 83.0404599,23 83.7792479,23 Z M92.0631486,23 C92.7333892,23 93.3598358,22.8790416 93.9424882,22.6371249 C94.5251406,22.3952082 95.0030679,22.0211677 95.3762701,21.5150035 L95.3762701,21.5150035 L95.5019403,22.7766923 L98.0953147,22.7766923 L98.0953147,7 L95.2620246,7 L95.2620246,12.7390091 C94.8888224,12.28495 94.4147032,11.9462666 93.8396672,11.7229588 C93.2646312,11.4996511 92.6572255,11.3879972 92.0174503,11.3879972 C90.9968566,11.3879972 90.1171657,11.6522447 89.3783776,12.1807397 C88.6395896,12.7092347 88.0778822,13.414515 87.6932555,14.2965806 C87.3086287,15.1786462 87.1163153,16.1444522 87.1163153,17.1939986 C87.1163153,18.2509886 87.3086287,19.2205164 87.6932555,20.102582 C88.0778822,20.9846476 88.6433978,21.688067 89.3898022,22.2128402 C90.1362066,22.7376134 91.0273221,23 92.0631486,23 Z M92.7371974,20.5324494 C91.8156165,20.5324494 91.1206226,20.2235404 90.6522158,19.6057223 C90.1838089,18.9879042 89.9496055,18.1839963 89.9496055,17.1939986 C89.9496055,16.2114445 90.185713,15.4093975 90.657928,14.7878576 C91.1301431,14.1663177 91.8232329,13.8555478 92.7371974,13.8555478 C93.651162,13.8555478 94.3404436,14.162596 94.8050423,14.7766923 C95.2696409,15.3907886 95.5019403,16.1965573 95.5019403,17.1939986 C95.5019403,18.1988835 95.271545,19.0065131 94.8107546,19.6168876 C94.3499641,20.2272622 93.6587784,20.5324494 92.7371974,20.5324494 Z M111.337473,22.7766923 L111.337473,21.3251919 L103.945785,21.3251919 L103.945785,7 L102.38062,7 L102.38062,22.7766923 L111.337473,22.7766923 Z M118.524616,22.9441731 C119.446197,22.9441731 120.251629,22.799023 120.94091,22.508723 C121.630192,22.2184229 122.29472,21.7457548 122.934495,21.0907188 L122.934495,21.0907188 L121.883436,20.1863224 C121.373139,20.7073738 120.860938,21.0739707 120.346833,21.286113 C119.832728,21.4982554 119.229131,21.6043266 118.536041,21.6043266 C117.401202,21.6043266 116.510086,21.250756 115.862695,20.5436148 C115.215303,19.8364736 114.861142,18.8539195 114.800211,17.5959525 L114.800211,17.5959525 L123.208685,17.5959525 C123.231534,17.514073 123.250575,17.3763666 123.265808,17.1828332 C123.28104,16.9892998 123.288657,16.7957665 123.288657,16.6022331 C123.288657,15.783438 123.124905,14.981391 122.797401,14.1960921 C122.469897,13.4107932 121.934847,12.7557572 121.19225,12.2309839 C120.449654,11.7062107 119.499512,11.4438241 118.341823,11.4438241 C117.267915,11.4438241 116.34443,11.7043498 115.571368,12.2254013 C114.798307,12.7464527 114.209942,13.4480112 113.806274,14.3300768 C113.402607,15.2121424 113.200773,16.185392 113.200773,17.2498255 C113.200773,18.3291463 113.408319,19.300535 113.823411,20.1639916 C114.238503,21.0274482 114.847813,21.706676 115.65134,22.2016748 C116.454867,22.6966736 117.412626,22.9441731 118.524616,22.9441731 Z M121.780615,16.5017446 L114.800211,16.5017446 C114.868758,15.7499418 115.049647,15.0893231 115.342877,14.5198883 C115.636108,13.9504536 116.037871,13.505699 116.548168,13.1856246 C117.058465,12.8655501 117.652542,12.7055129 118.330399,12.7055129 C119.046338,12.7055129 119.653743,12.8525238 120.152616,13.1465457 C120.651488,13.4405676 121.032307,13.8220516 121.295071,14.2909979 C121.557836,14.7599442 121.712068,15.2623866 121.757766,15.7983252 C121.788232,15.984415 121.795848,16.2188881 121.780615,16.5017446 L121.780615,16.5017446 Z M129.333344,22.9441731 C130.209227,22.9441731 131.014658,22.7357525 131.749638,22.3189114 C132.484618,21.9020702 133.061558,21.2991393 133.480458,20.5101186 L133.480458,20.5101186 L133.583279,22.7766923 L134.839981,22.7766923 L134.839981,15.965806 C134.839981,15.0279135 134.6629,14.2202838 134.308739,13.542917 C133.954578,12.8655501 133.438568,12.3463596 132.760711,11.9853454 C132.082854,11.6243312 131.260286,11.4438241 130.293007,11.4438241 C129.310495,11.4438241 128.465078,11.6336357 127.756755,12.0132589 C127.048433,12.3928821 126.408658,12.9697604 125.83743,13.7438939 L125.83743,13.7438939 L126.99131,14.5701326 C127.402594,13.9672017 127.874809,13.5131426 128.407955,13.2079553 C128.941101,12.9027681 129.57326,12.7501745 130.304432,12.7501745 C131.431654,12.7501745 132.240894,13.0293091 132.73215,13.5875785 C133.223406,14.1458479 133.469034,15.0241917 133.469034,16.2226099 L133.469034,16.2226099 L133.469034,16.3565946 L130.178761,16.3565946 C126.987502,16.3565946 125.391872,17.4173064 125.391872,19.5387299 C125.391872,20.2384275 125.557528,20.8450803 125.88884,21.3586881 C126.220152,21.8722959 126.682847,22.2649453 127.276924,22.5366364 C127.871001,22.8083275 128.556474,22.9441731 129.333344,22.9441731 Z M129.618958,21.6824843 C128.773541,21.6824843 128.114725,21.4945336 127.64251,21.1186322 C127.170295,20.7427309 126.934187,20.2309839 126.934187,19.5833915 C126.934187,18.8985811 127.212185,18.371947 127.76818,18.0034892 C128.324175,17.6350314 129.154359,17.4508025 130.258733,17.4508025 L130.258733,17.4508025 L133.469034,17.4508025 L133.469034,18.589672 C133.194844,19.5350081 132.726438,20.2868109 132.063813,20.8450803 C131.401189,21.4033496 130.586237,21.6824843 129.618958,21.6824843 Z M140.130647,22.7766923 L140.130647,17.0823447 C140.130647,16.129565 140.294399,15.3386834 140.621903,14.7096999 C140.949407,14.0807164 141.366404,13.6192138 141.872892,13.3251919 C142.379381,13.03117 142.906815,12.8841591 143.455194,12.8841591 C143.919792,12.8841591 144.353925,12.9920912 144.757593,13.2079553 L144.757593,13.2079553 L145.443066,11.9797627 C145.199343,11.8011165 144.923249,11.6671319 144.614786,11.5778088 C144.306323,11.4884857 143.98834,11.4438241 143.660836,11.4438241 C143.188621,11.4438241 142.71831,11.536869 142.249903,11.7229588 C141.781496,11.9090486 141.358787,12.1900442 140.981777,12.5659456 C140.604767,12.9418469 140.324865,13.4052105 140.142072,13.9560363 L140.142072,13.9560363 L140.142072,11.6224703 L138.668304,11.6224703 L138.668304,22.7766923 L140.130647,22.7766923 Z M149.328513,22.7766923 L149.328513,16.1779484 C149.328513,15.1060712 149.612222,14.2779716 150.179642,13.6936497 C150.747062,13.1093278 151.522028,12.8171668 152.50454,12.8171668 C153.433737,12.8171668 154.142059,13.1000233 154.629507,13.6657362 C155.116955,14.2314492 155.360679,15.0279135 155.360679,16.0551291 L155.360679,16.0551291 L155.360679,22.7766923 L156.86872,22.7766923 L156.86872,15.7090021 C156.853488,14.8827634 156.697352,14.1495697 156.400314,13.5094208 C156.103275,12.8692719 155.661525,12.3649686 155.075065,11.9965108 C154.488604,11.628053 153.765049,11.4438241 152.904399,11.4438241 C152.135146,11.4438241 151.434439,11.6224703 150.802281,11.9797627 C150.170122,12.3370551 149.678866,12.8506629 149.328513,13.5205862 L149.328513,13.5205862 L149.328513,11.6224703 L147.820471,11.6224703 L147.820471,22.7766923 L149.328513,22.7766923 Z M165.106923,22.9441731 C166.028504,22.9441731 166.833935,22.799023 167.523217,22.508723 C168.212498,22.2184229 168.877027,21.7457548 169.516802,21.0907188 L169.516802,21.0907188 L168.465743,20.1863224 C167.955446,20.7073738 167.443245,21.0739707 166.92914,21.286113 C166.415035,21.4982554 165.811437,21.6043266 165.118347,21.6043266 C163.983508,21.6043266 163.092393,21.250756 162.445001,20.5436148 C161.797609,19.8364736 161.443448,18.8539195 161.382517,17.5959525 L161.382517,17.5959525 L169.790991,17.5959525 C169.81384,17.514073 169.832881,17.3763666 169.848114,17.1828332 C169.863347,16.9892998 169.870963,16.7957665 169.870963,16.6022331 C169.870963,15.783438 169.707211,14.981391 169.379707,14.1960921 C169.052203,13.4107932 168.517153,12.7557572 167.774557,12.2309839 C167.031961,11.7062107 166.081818,11.4438241 164.92413,11.4438241 C163.850222,11.4438241 162.926736,11.7043498 162.153675,12.2254013 C161.380613,12.7464527 160.792248,13.4480112 160.388581,14.3300768 C159.984913,15.2121424 159.783079,16.185392 159.783079,17.2498255 C159.783079,18.3291463 159.990625,19.300535 160.405718,20.1639916 C160.82081,21.0274482 161.430119,21.706676 162.233647,22.2016748 C163.037174,22.6966736 163.994933,22.9441731 165.106923,22.9441731 Z M168.362922,16.5017446 L161.382517,16.5017446 C161.451065,15.7499418 161.631953,15.0893231 161.925184,14.5198883 C162.218414,13.9504536 162.620178,13.505699 163.130474,13.1856246 C163.640771,12.8655501 164.234848,12.7055129 164.912705,12.7055129 C165.628644,12.7055129 166.23605,12.8525238 166.734922,13.1465457 C167.233795,13.4405676 167.614613,13.8220516 167.877378,14.2909979 C168.140143,14.7599442 168.294374,15.2623866 168.340072,15.7983252 C168.370538,15.984415 168.378154,16.2188881 168.362922,16.5017446 L168.362922,16.5017446 Z M174.487581,22.7766923 L174.487581,17.0823447 C174.487581,16.129565 174.651333,15.3386834 174.978837,14.7096999 C175.306341,14.0807164 175.723337,13.6192138 176.229826,13.3251919 C176.736315,13.03117 177.263748,12.8841591 177.812127,12.8841591 C178.276726,12.8841591 178.710859,12.9920912 179.114527,13.2079553 L179.114527,13.2079553 L179.8,11.9797627 C179.556276,11.8011165 179.280183,11.6671319 178.97172,11.5778088 C178.663257,11.4884857 178.345273,11.4438241 178.017769,11.4438241 C177.545554,11.4438241 177.075243,11.536869 176.606836,11.7229588 C176.138429,11.9090486 175.715721,12.1900442 175.33871,12.5659456 C174.9617,12.9418469 174.681798,13.4052105 174.499005,13.9560363 L174.499005,13.9560363 L174.499005,11.6224703 L173.025238,11.6224703 L173.025238,22.7766923 L174.487581,22.7766923 Z" id="WildLearner" fill="#FFFFFF" fill-rule="nonzero"></path>
                </g>
            </g>
        </g>
    </g>
</svg>
