<?xml version="1.0" encoding="UTF-8"?>
<svg width="21px" height="25px" viewBox="0 0 21 25" version="1.1" xmlns="http://www.w3.org/2000/svg" xmlns:xlink="http://www.w3.org/1999/xlink">
    <title>Shape</title>
    <g id="Web" stroke="none" stroke-width="1" fill="none" fill-rule="evenodd">
        <g id="Sign-up-Dark" transform="translate(-710.000000, -375.000000)" fill="#FFFFFF" fill-rule="nonzero">
            <g id="Group-2" transform="translate(695.000000, 367.000000)">
                <path d="M32.001665,21.310211 C32.0367974,25.0843022 35.320761,26.3402246 35.3571429,26.3562548 C35.3293754,26.4448294 34.8324202,28.1460673 33.6269949,29.9033245 C32.5849576,31.4225624 31.5034604,32.936235 29.7997827,32.9675845 C28.125749,32.9983537 27.5874538,31.9773371 25.6735593,31.9773371 C23.760243,31.9773371 23.1621725,32.9362325 21.5775131,32.9983537 C19.933032,33.0604294 18.6807768,31.3554991 17.6300799,29.8418265 C15.4831079,26.7455582 13.842377,21.0924996 16.0454638,17.2765929 C17.1399103,15.3815981 19.095769,14.1816082 21.2186787,14.1508367 C22.8335172,14.1201098 24.3577328,15.2345552 25.344904,15.2345552 C26.3314493,15.2345552 28.1836956,13.894337 30.1308939,14.0911649 C30.9460576,14.1250088 33.2342355,14.4196293 34.7035374,16.5649787 C34.5851479,16.6381895 31.9732728,18.1549326 32.001665,21.3102146 M28.8693709,11.9520755 C29.7308888,10.905782 30.31074,9.44924476 30.1525503,8 C28.9107371,8.05007537 27.4091058,8.83025574 26.5183808,9.87597355 C25.7201201,10.8020054 25.0210232,12.2841784 25.2096517,13.7047394 C26.5937984,13.8121844 28.0078107,12.9990343 28.8693709,11.9520772" id="Shape"></path>
            </g>
        </g>
    </g>
</svg>