<?xml version="1.0" encoding="UTF-8"?>
<svg width="16px" height="17px" viewBox="0 0 16 17" version="1.1" xmlns="http://www.w3.org/2000/svg" xmlns:xlink="http://www.w3.org/1999/xlink">
    <title>Fill 1</title>
    <g id="Web" stroke="none" stroke-width="1" fill="none" fill-rule="evenodd">
        <g id="Forgot-Password" transform="translate(-984.000000, -207.000000)" fill="#9B9B9B">
            <path d="M999.656592,221.755083 C1000.11447,222.223821 1000.11447,222.983746 999.656592,223.452484 C999.198669,223.921223 998.456278,223.921223 997.998309,223.452484 L992.000023,217.312484 L986.001691,223.452484 C985.543768,223.921223 984.801331,223.921223 984.343408,223.452484 C983.885531,222.983746 983.885531,222.223821 984.343408,221.755083 L990.549887,215.402019 L984.343408,209.048955 C983.885531,208.580217 983.885531,207.820292 984.343408,207.351554 C984.801331,206.882815 985.543768,206.882815 986.001691,207.351554 L992.000023,213.491555 L997.998309,207.351554 C998.456278,206.882815 999.198669,206.882815 999.656592,207.351554 C1000.11447,207.820292 1000.11447,208.580217 999.656592,209.048955 L993.450067,215.402019 L999.656592,221.755083 Z" id="Fill-1"></path>
        </g>
    </g>
</svg>