<?xml version="1.0" encoding="UTF-8"?>
<svg width="25px" height="25px" viewBox="0 0 25 25" version="1.1" xmlns="http://www.w3.org/2000/svg" xmlns:xlink="http://www.w3.org/1999/xlink">
    <title>Group</title>
    <g id="Web" stroke="none" stroke-width="1" fill="none" fill-rule="evenodd">
        <g id="Sign-up-Dark" transform="translate(-710.000000, -255.000000)" fill-rule="nonzero">
            <g id="Group-4" transform="translate(695.000000, 247.000000)">
                <g id="Group" transform="translate(15.000000, 8.000000)">
                    <path d="M25,12.576047 C25,5.63101302 19.4030375,0 12.5,0 C5.59696245,0 0,5.63101302 0,12.576047 C0,18.852575 4.57038391,24.0556027 10.5470398,25 L10.5470398,16.2121534 L7.37238082,16.2121534 L7.37238082,12.576047 L10.5470398,12.576047 L10.5470398,9.80475382 C10.5470398,6.65322581 12.4138658,4.91121958 15.2685979,4.91121958 C16.6361974,4.91121958 18.0670792,5.15704584 18.0670792,5.15704584 L18.0670792,8.25198076 L16.4902967,8.25198076 C14.938124,8.25198076 14.4529602,9.22113752 14.4529602,10.2168223 L14.4529602,12.576047 L17.9194206,12.576047 L17.365701,16.2121534 L14.4529602,16.2121534 L14.4529602,25 C20.4296161,24.0573713 25,18.8543435 25,12.576047 Z" id="Path" fill="#1977F3"></path>
                    <path d="M17.7898313,16.0028639 L18.3651107,12.3434947 L14.7636789,12.3434947 L14.7636789,9.96917625 C14.7636789,8.96890119 15.2659069,7.99176415 16.8803419,7.99176415 L18.5185185,7.99176415 L18.5185185,4.87702862 C18.5185185,4.87702862 17.0319234,4.62962963 15.6110746,4.62962963 C12.6451896,4.62962963 10.7056761,6.38100092 10.7056761,9.55447147 L10.7056761,12.3434947 L7.40740741,12.3434947 L7.40740741,16.0028639 L10.7056761,16.0028639 L10.7056761,24.846933 C11.3667909,24.9483844 12.0443422,25 12.7346775,25 C13.4250128,25 14.1025641,24.9466045 14.7636789,24.846933 L14.7636789,16.0028639 L17.7898313,16.0028639 Z" id="Path" fill="#FEFEFE"></path>
                </g>
            </g>
        </g>
    </g>
</svg>