<?xml version="1.0" encoding="UTF-8"?>
<svg width="25px" height="25px" viewBox="0 0 25 25" version="1.1" xmlns="http://www.w3.org/2000/svg" xmlns:xlink="http://www.w3.org/1999/xlink">
    <title>Group</title>
    <g id="Web" stroke="none" stroke-width="1" fill="none" fill-rule="evenodd">
        <g id="Sign-up-Dark" transform="translate(-710.000000, -315.000000)" fill-rule="nonzero">
            <g id="Group-3" transform="translate(695.000000, 307.000000)">
                <g id="Group" transform="translate(15.000000, 8.000000)">
                    <path d="M24.9113475,12.678672 C24.9113475,11.8215506 24.8402569,10.9676155 24.691613,10.1232394 L12.677305,10.1232394 L12.677305,14.9600806 L19.5569343,14.9600806 C19.272572,16.5213798 18.3548572,17.9010584 17.0138303,18.7772978 L17.0138303,21.9190141 L21.120927,21.9190141 C23.5250812,19.7363816 24.9113475,16.5022618 24.9113475,12.678672 L24.9113475,12.678672 Z" id="Path" fill="#4285F4"></path>
                    <path d="M12.6282318,24.9119718 C16.0415041,24.9119718 18.9158387,23.8133869 21.0106383,21.9152588 L16.9333177,18.8115203 C15.7976989,19.5669942 14.3380759,19.9982439 12.6282318,19.9982439 C9.33044617,19.9982439 6.52989474,17.816813 5.52901039,14.8767606 L1.32978723,14.8767606 L1.32978723,18.0749333 C3.47591427,22.2678133 7.84836741,24.9119718 12.6282318,24.9119718 Z" id="Path" fill="#34A853"></path>
                    <path d="M5.58510638,14.8128214 C5.06057492,13.2568036 5.06057492,11.5671401 5.58510638,10.0111222 L5.58510638,6.77816901 L1.42382347,6.77816901 C-0.356404514,10.3229622 -0.356404514,14.5009815 1.42382347,18.0457746 L5.58510638,14.8128214 Z" id="Path" fill="#FBBC04"></path>
                    <path d="M12.6837524,5.00214116 C14.4954868,4.97381302 16.2459703,5.64109811 17.5580271,6.86235572 L21.1879433,3.32133816 C18.8862025,1.21246549 15.8397808,0.0541593016 12.6837524,0.0887825844 C7.88039974,0.0887825844 3.48646035,2.73588993 1.32978723,6.92530714 L5.54964539,10.1232394 C6.5554481,7.18340797 9.36976144,5.00214116 12.6837524,5.00214116 Z" id="Path" fill="#EA4335"></path>
                </g>
            </g>
        </g>
    </g>
</svg>